<?xml version="1.0" encoding="utf-8"?>
<!-- Generator: Adobe Illustrator 22.0.1, SVG Export Plug-In . SVG Version: 6.00 Build 0)  -->
<svg version="1.1" id="Layer_1" xmlns="http://www.w3.org/2000/svg" xmlns:xlink="http://www.w3.org/1999/xlink" x="0px" y="0px"
	 viewBox="0 0 264 128" style="enable-background:new 0 0 264 128;" xml:space="preserve">
<style type="text/css">
	.st0{fill:#221F1F;}
</style>
<g>
	<g>
		<g>
			<path class="st0" d="M1.8,83.6V42.9h0.5l20.6,15l20.7-15h0.5v40.8h-12V64.5l-9.3,7.4h-0.3l-9.4-7.4v19.1H1.8z"/>
			<path class="st0" d="M46.4,83.6V43.3h34.3v10.3H57.8v4.8h17.6v9.9H57.8v5h22.9v10.4H46.4z"/>
			<path class="st0" d="M82.5,83.6V43.3h17.9c12.3,0,21,8.6,21,20c0,11.6-8.7,20.4-21.1,20.4H82.5z M94.3,73.2h5.2
				c5.4,0,9.8-3.2,9.8-9.9c0-3.2-0.9-5.7-2.8-7.3c-1.9-1.6-4.1-2.5-6.8-2.5h-5.4V73.2z"/>
			<path class="st0" d="M122.4,83.6V43.3h11.8v40.4H122.4z"/>
			<path class="st0" d="M164.2,83.6l-2.4-4.4h-13.8l-2.3,4.4h-13.4v-0.1l22.5-40.9h0.8L178,83.6v0.1H164.2z M151.5,70.3h7.4
				l-3.7-7.6L151.5,70.3z"/>
		</g>
	</g>
	<g>
		<g>
			<path class="st0" d="M32.9,41.4L30.6,37H16.8l-2.3,4.4H1.1v-0.1L23.6,0.5h0.8l22.3,40.9v0.1H32.9z M20.2,28.1h7.4l-3.7-7.6
				L20.2,28.1z"/>
			<path class="st0" d="M57.8,31.5v9.9H46.2V1h19C76,1,82.8,7.8,82.8,16c0,5.1-2.7,9.8-7.5,12.4l10.1,13H71.3l-7-9.9H57.8z
				 M64.9,21.9c3.8,0,6.2-2.4,6.2-5.2c0-3-2.6-5.3-6.3-5.3h-6.9v10.5H64.9z"/>
			<path class="st0" d="M105.8,41.4H94.2V11.6H82.3V1h35.5v10.6h-12V41.4z"/>
		</g>
	</g>
	<g>
		<g>
			<path class="st0" d="M21.9,85.7c7.5,0,14.2,3.1,17.9,8.1l-8.6,6.8c-2.3-3.2-5.7-4.6-9-4.6c-5.3,0-10.3,3.8-10.3,10.8
				c0,3.1,0.9,5.7,2.9,7.6c1.9,1.9,4.4,2.9,7.4,2.9c4.6,0,8.2-2.5,8.9-6.2H21v-8.3h22v4.3c0,11.2-8.8,20.4-21.1,20.4
				c-12.3,0-21.6-8.8-21.6-20.8C0.3,94.1,9.8,85.7,21.9,85.7z"/>
			<path class="st0" d="M69.7,126.8l-2.4-4.4H53.5l-2.3,4.4H37.9v-0.1l22.5-40.9h0.8l22.3,40.9v0.1H69.7z M56.9,113.4h7.4l-3.7-7.6
				L56.9,113.4z"/>
			<path class="st0" d="M116.3,126.8H84.3V86.4h11.8v29.7h20.2V126.8z"/>
			<path class="st0" d="M149.7,126.8h-31.9V86.4h11.8v29.7h20.2V126.8z"/>
			<path class="st0" d="M151,126.8V86.4h34.3v10.3h-22.9v4.8H180v9.9h-17.6v5h22.9v10.4H151z"/>
			<path class="st0" d="M198.8,116.9v9.9h-11.6V86.4h19c10.8,0,17.5,6.8,17.5,14.9c0,5.1-2.7,9.8-7.5,12.4l10.1,13h-14.1l-7-9.9
				H198.8z M205.9,107.2c3.8,0,6.2-2.4,6.2-5.2c0-3-2.6-5.3-6.3-5.3h-6.9v10.5H205.9z"/>
			<path class="st0" d="M247.1,126.8h-11.6l0.1-17.1l-16.1-23.2h13.5l8.8,13.4l9.2-13.4h12.3l-16,23.3V126.8z"/>
		</g>
	</g>
</g>
</svg>
