<?xml version="1.0" encoding="utf-8"?>
<!-- Generator: Adobe Illustrator 22.0.1, SVG Export Plug-In . SVG Version: 6.00 Build 0)  -->
<svg version="1.1" id="Layer_1" xmlns="http://www.w3.org/2000/svg" xmlns:xlink="http://www.w3.org/1999/xlink" x="0px" y="0px"
	 viewBox="0 0 70 68.5" style="enable-background:new 0 0 70 68.5;" xml:space="preserve">
<style type="text/css">
	.st0{fill:#221F1F;}
	.st1{fill:#F2E52F;}
</style>
<g>
	<path class="st0" d="M18.7,43.2c4.8,5.1,13.2,8.1,20,8.1c5.2,0,8.9-1.6,8.9-4.7c0-1.6-1.3-2.8-3.9-3.2l-9.9-1.6
		c-15.8-2-23.1-8.6-23.1-19.6c0-12.8,12.4-21.2,27.4-21.2c12.2,0,20.9,4.4,26.1,9.6l-10,12.5c-2.2-2.3-4.9-3.9-8.1-5
		c-3.2-1.1-6.1-1.7-9-1.7c-5.1,0-7.8,1.8-7.8,4.2c0,1.6,1.3,2.7,4,3.2c2.7,0.5,5.8,1,9.5,1.6c15.6,2.2,22.8,8.6,22.8,19.6
		c0,15.3-15,22.1-27.9,22.1c-5.4,0-10.6-0.9-15.9-2.6c-5.2-1.8-9.6-4.6-13.2-8.4L18.7,43.2z"/>
	<path class="st1" d="M5.2,16.5h3.3v3.3H5.2V16.5z M5.2,23h3.3v3.3H5.2V23z M5.2,29.6h3.3v3.3H5.2V29.6z M5.2,36.2h3.3v3.3H5.2V36.2
		z M5.2,55.9h3.3v3.3H5.2V55.9z M5.2,62.5h3.3v3.3H5.2V62.5z M11.8,16.5h3.3v3.3h-3.3V16.5z M11.8,23h3.3v3.3h-3.3V23z M11.8,29.6
		h3.3v3.3h-3.3V29.6z M11.8,36.2h3.3v3.3h-3.3V36.2z M11.8,55.9h3.3v3.3h-3.3V55.9z M11.8,62.5h3.3v3.3h-3.3V62.5z M18.4,3.3h3.3
		v3.3h-3.3V3.3z M18.4,9.9h3.3v3.3h-3.3V9.9z M18.4,29.6h3.3v3.3h-3.3V29.6z M18.4,36.2h3.3v3.3h-3.3V36.2z M18.4,55.9h3.3v3.3h-3.3
		V55.9z M18.4,62.5h3.3v3.3h-3.3V62.5z M24.9,3.3h3.3v3.3h-3.3V3.3z M24.9,9.9h3.3v3.3h-3.3V9.9z M24.9,29.6h3.3v3.3h-3.3V29.6z
		 M24.9,36.2h3.3v3.3h-3.3V36.2z M24.9,55.9h3.3v3.3h-3.3V55.9z M24.9,62.5h3.3v3.3h-3.3V62.5z M31.5,3.3h3.3v3.3h-3.3V3.3z
		 M31.5,9.9h3.3v3.3h-3.3V9.9z M31.5,29.6h3.3v3.3h-3.3V29.6z M31.5,36.2h3.3v3.3h-3.3V36.2z M31.5,55.9h3.3v3.3h-3.3V55.9z
		 M31.5,62.5h3.3v3.3h-3.3V62.5z M38.1,3.3h3.3v3.3h-3.3V3.3z M38.1,9.9h3.3v3.3h-3.3V9.9z M38.1,29.6h3.3v3.3h-3.3V29.6z
		 M38.1,36.2h3.3v3.3h-3.3V36.2z M38.1,55.9h3.3v3.3h-3.3V55.9z M38.1,62.5h3.3v3.3h-3.3V62.5z M44.7,3.3h3.3v3.3h-3.3V3.3z
		 M44.7,9.9h3.3v3.3h-3.3V9.9z M44.7,29.6h3.3v3.3h-3.3V29.6z M44.7,36.2h3.3v3.3h-3.3V36.2z M44.7,42.8h3.3V46h-3.3V42.8z
		 M44.7,49.3h3.3v3.3h-3.3V49.3z M51.2,3.3h3.3v3.3h-3.3V3.3z M51.2,9.9h3.3v3.3h-3.3V9.9z M51.2,29.6h3.3v3.3h-3.3V29.6z
		 M51.2,36.2h3.3v3.3h-3.3V36.2z M51.2,42.8h3.3V46h-3.3V42.8z M51.2,49.3h3.3v3.3h-3.3V49.3z"/>
</g>
</svg>
