<?xml version="1.0" standalone="no"?>
<!DOCTYPE svg PUBLIC "-//W3C//DTD SVG 20010904//EN"
 "http://www.w3.org/TR/2001/REC-SVG-20010904/DTD/svg10.dtd">
<svg version="1.0" xmlns="http://www.w3.org/2000/svg"
 width="700.000000pt" height="700.000000pt" viewBox="0 0 700.000000 700.000000"
 preserveAspectRatio="xMidYMid meet">
<metadata>
Created by potrace 1.11, written by Peter Selinger 2001-2013
</metadata>
<g transform="translate(0.000000,700.000000) scale(0.100000,-0.100000)"
fill="#000000" stroke="none">
<path d="M3417 6894 c-1 -1 -60 -4 -132 -8 -71 -3 -141 -8 -155 -10 -14 -2
-54 -7 -90 -11 -389 -38 -867 -183 -1245 -379 -174 -90 -357 -205 -470 -293
-5 -5 -41 -33 -80 -63 -300 -237 -609 -600 -781 -920 -11 -19 -22 -37 -25 -40
-9 -8 -107 -216 -150 -318 -124 -299 -215 -669 -243 -992 -4 -36 -8 -92 -11
-125 -6 -69 -7 -442 -1 -495 2 -19 7 -71 11 -115 24 -288 105 -630 217 -915
112 -284 261 -548 444 -787 404 -527 960 -917 1614 -1133 242 -80 514 -141
735 -166 33 -3 68 -8 78 -10 47 -9 269 -18 417 -18 187 1 385 13 480 29 14 3
48 7 75 11 41 4 262 46 315 59 121 30 314 88 365 110 17 7 64 25 105 40 108
39 364 165 483 236 133 80 264 171 390 272 107 85 361 332 439 427 370 451
596 923 706 1475 11 55 23 118 26 140 3 22 7 56 11 75 21 136 28 311 27 715 0
209 -1 391 -1 405 l-1 25 -1787 0 -1788 -1 -3 -674 -2 -675 812 0 813 0 -3
-39 c-7 -90 -96 -286 -180 -399 -182 -242 -412 -396 -732 -490 -79 -23 -104
-30 -170 -42 -220 -42 -509 -39 -748 6 -612 117 -1086 575 -1228 1187 -8 35
-17 82 -20 105 -3 23 -7 48 -10 56 -22 68 -22 554 0 622 3 8 7 32 10 54 31
232 129 483 270 695 66 99 262 313 319 350 13 8 66 44 118 78 196 133 453 229
684 257 22 2 63 7 90 10 57 7 287 8 325 1 14 -3 52 -7 85 -11 171 -19 383 -81
553 -162 91 -44 263 -153 327 -207 103 -89 177 -163 248 -251 44 -55 83 -101
87 -103 4 -1 32 17 63 40 49 38 687 543 727 575 8 7 98 78 200 158 102 80 192
151 200 158 8 7 35 28 60 47 25 19 47 37 50 40 4 4 79 62 99 77 13 9 -132 177
-279 323 -390 387 -885 667 -1485 839 -129 37 -345 86 -419 96 -12 1 -37 5
-56 9 -90 15 -236 31 -384 42 -80 5 -394 12 -399 8z"/>
</g>
</svg>
